<?xml version="1.0" encoding="UTF-8"?>
<svg width="512" height="512" viewBox="0 0 512 512" fill="none" xmlns="http://www.w3.org/2000/svg">
  <rect width="512" height="512" rx="100" fill="url(#paint0_linear)" />
  <path d="M256 120C256 120 192 180 128 180C128 300 192 392 256 392C320 392 384 300 384 180C320 180 256 120 256 120Z" fill="white"/>
  <path d="M256 170C256 170 224 210 192 210C192 280 224 332 256 332C288 332 320 280 320 210C288 210 256 170 256 170Z" fill="url(#paint1_linear)"/>
  <defs>
    <linearGradient id="paint0_linear" x1="0" y1="0" x2="512" y2="512" gradientUnits="userSpaceOnUse">
      <stop stop-color="#8B5CF6"/>
      <stop offset="1" stop-color="#3B82F6"/>
    </linearGradient>
    <linearGradient id="paint1_linear" x1="192" y1="170" x2="320" y2="332" gradientUnits="userSpaceOnUse">
      <stop stop-color="#8B5CF6"/>
      <stop offset="1" stop-color="#3B82F6"/>
    </linearGradient>
  </defs>
</svg>